<svg width="2032" height="2038" viewBox="0 0 2032 2038" xmlns="http://www.w3.org/2000/svg" xmlns:sketch="http://www.bohemiancoding.com/sketch/ns"><title>logo-durarara</title><desc>Created with Sketch.</desc><g sketch:type="MSLayerGroup" fill="none"><g sketch:type="MSShapeGroup"><path d="M1015.831 0c561.028 0 1015.831 456.046 1015.831 1018.607 0 562.561-454.803 1018.607-1015.831 1018.607s-1015.831-456.046-1015.831-1018.607c0-562.561 454.803-1018.607 1015.831-1018.607" id="Imported-Layers" fill="#fff"/><path d="M1018.596 20c551.51 0 998.596 445.844 998.596 995.822 0 549.978-447.086 995.822-998.596 995.822s-998.596-445.844-998.596-995.822c0-549.978 447.086-995.822 998.596-995.822" id="Imported-Layers" fill="#000"/><path d="M1927.408 1021.201c0 500.484-405.717 906.201-906.201 906.201-500.484 0-906.207-405.717-906.207-906.201 0-500.484 405.722-906.201 906.207-906.201 500.484 0 906.201 405.717 906.201 906.201z" fill="#fff"/><path d="M1865.291 1019.91c0 466.629-378.386 844.91-845.146 844.91-466.759 0-845.146-378.281-845.146-844.91 0-466.629 378.386-844.91 845.146-844.91 466.759 0 845.146 378.281 845.146 844.91z" fill="#000"/></g><g sketch:type="MSShapeGroup"><g fill="#0ff"><path d="M457.319 931.146c8.763 0 15.866 7.108 15.866 15.871 0 8.763-7.103 15.866-15.866 15.866s-15.866-7.103-15.866-15.866 7.103-15.871 15.866-15.871" id="Fill-1"/><path d="M335.146 1031.106c8.763 0 15.866 7.108 15.866 15.871 0 8.763-7.103 15.866-15.866 15.866s-15.866-7.103-15.866-15.866 7.103-15.871 15.866-15.871" id="Fill-2"/><path d="M630.473 1103.3c8.763 0 15.866 7.108 15.866 15.871 0 8.763-7.103 15.866-15.866 15.866s-15.866-7.103-15.866-15.866 7.103-15.871 15.866-15.871" id="Fill-3"/><path d="M668.346 964.466c8.763 0 15.866 7.103 15.866 15.866s-7.103 15.866-15.866 15.866-15.866-7.103-15.866-15.866 7.103-15.866 15.866-15.866" id="Fill-4"/><path d="M734.986 997.786c8.763 0 15.866 7.103 15.866 15.866s-7.103 15.866-15.866 15.866-15.866-7.103-15.866-15.866 7.103-15.866 15.866-15.866" id="Fill-5"/><path d="M940.459 931.146c8.763 0 15.866 7.108 15.866 15.871 0 8.763-7.103 15.866-15.866 15.866s-15.866-7.103-15.866-15.866 7.103-15.871 15.866-15.871" id="Fill-6"/><path d="M977.866 1103.3c8.763 0 15.866 7.108 15.866 15.871 0 8.763-7.103 15.866-15.866 15.866s-15.866-7.103-15.866-15.866 7.103-15.871 15.866-15.871" id="Fill-7"/><path d="M1222.866 1031.106c8.763 0 15.866 7.108 15.866 15.871 0 8.763-7.103 15.866-15.866 15.866s-15.866-7.103-15.866-15.866 7.103-15.871 15.866-15.871" id="Fill-8"/><path d="M1258.999 964.466c8.763 0 15.866 7.103 15.866 15.866s-7.103 15.866-15.866 15.866-15.866-7.103-15.866-15.866 7.103-15.866 15.866-15.866" id="Fill-9"/><path d="M1362.146 1031.273c8.763 0 15.866 7.108 15.866 15.871 0 8.763-7.103 15.866-15.866 15.866s-15.866-7.103-15.866-15.866 7.103-15.871 15.866-15.871" id="Fill-10"/><path d="M1501.346 931.146c8.763 0 15.866 7.108 15.866 15.871 0 8.763-7.103 15.866-15.866 15.866s-15.866-7.103-15.866-15.866 7.103-15.871 15.866-15.871" id="Fill-11"/><path d="M1480.133 1064.426c8.763 0 15.866 7.108 15.866 15.871 0 8.763-7.103 15.866-15.866 15.866s-15.866-7.103-15.866-15.866 7.103-15.871 15.866-15.871" id="Fill-12"/><path d="M1567.986 1064.426c8.763 0 15.866 7.108 15.866 15.871 0 8.763-7.103 15.866-15.866 15.866s-15.866-7.103-15.866-15.866 7.103-15.871 15.866-15.871" id="Fill-13"/><path d="M1707.146 1031.273c8.763 0 15.866 7.108 15.866 15.871 0 8.763-7.103 15.866-15.866 15.866s-15.866-7.103-15.866-15.866 7.103-15.871 15.866-15.871" id="Fill-14"/><path d="M1601.146 892.273c8.763 0 15.866 7.108 15.866 15.871 0 8.763-7.103 15.866-15.866 15.866s-15.866-7.103-15.866-15.866 7.103-15.871 15.866-15.871" id="Fill-15"/></g><g fill="#FFA9EC"><path d="M429.552 892.273c8.763 0 15.866 7.108 15.866 15.871 0 8.763-7.103 15.866-15.866 15.866s-15.866-7.103-15.866-15.866 7.103-15.871 15.866-15.871" id="Fill-1"/><path d="M384.866 1103.3c8.763 0 15.866 7.108 15.866 15.871 0 8.763-7.103 15.866-15.866 15.866s-15.866-7.103-15.866-15.866 7.103-15.871 15.866-15.871" id="Fill-2"/><path d="M523.959 997.786c8.763 0 15.866 7.103 15.866 15.866s-7.103 15.866-15.866 15.866-15.866-7.103-15.866-15.866 7.103-15.866 15.866-15.866" id="Fill-3"/><path d="M668.346 931.146c8.763 0 15.866 7.108 15.866 15.871 0 8.763-7.103 15.866-15.866 15.866s-15.866-7.103-15.866-15.866 7.103-15.871 15.866-15.871" id="Fill-4"/><path d="M734.986 1103.3c8.763 0 15.866 7.108 15.866 15.871 0 8.763-7.103 15.866-15.866 15.866s-15.866-7.103-15.866-15.866 7.103-15.871 15.866-15.871" id="Fill-5"/><path d="M884.479 1103.3c8.763 0 15.866 7.108 15.866 15.871 0 8.763-7.103 15.866-15.866 15.866s-15.866-7.103-15.866-15.866 7.103-15.871 15.866-15.871" id="Fill-6"/><path d="M940.459 1064.426c8.763 0 15.866 7.108 15.866 15.871 0 8.763-7.103 15.866-15.866 15.866s-15.866-7.103-15.866-15.866 7.103-15.871 15.866-15.871" id="Fill-7"/><path d="M940.459 892.273c8.763 0 15.866 7.108 15.866 15.871 0 8.763-7.103 15.866-15.866 15.866s-15.866-7.103-15.866-15.866 7.103-15.871 15.866-15.871" id="Fill-8"/><path d="M1186.359 964.466c8.763 0 15.866 7.103 15.866 15.866s-7.103 15.866-15.866 15.866-15.866-7.103-15.866-15.866 7.103-15.866 15.866-15.866" id="Fill-9"/><path d="M1150.679 1103.273c8.763 0 15.866 7.108 15.866 15.871 0 8.763-7.103 15.866-15.866 15.866s-15.866-7.103-15.866-15.866 7.103-15.871 15.866-15.871" id="Fill-10"/><path d="M1295.679 1064.273c8.763 0 15.866 7.108 15.866 15.871 0 8.763-7.103 15.866-15.866 15.866s-15.866-7.103-15.866-15.866 7.103-15.871 15.866-15.871" id="Fill-11"/><path d="M1362.679 998.273c8.763 0 15.866 7.103 15.866 15.866s-7.103 15.866-15.866 15.866-15.866-7.103-15.866-15.866 7.103-15.866 15.866-15.866" id="Fill-12"/><path d="M1395.866 892.273c8.763 0 15.866 7.108 15.866 15.871 0 8.763-7.103 15.866-15.866 15.866s-15.866-7.103-15.866-15.866 7.103-15.871 15.866-15.871" id="Fill-13"/><path d="M1462.679 1032.273c8.763 0 15.866 7.103 15.866 15.866s-7.103 15.866-15.866 15.866-15.866-7.103-15.866-15.866 7.103-15.866 15.866-15.866" id="Fill-14"/><path d="M1601.679 998.273c8.763 0 15.866 7.103 15.866 15.866s-7.103 15.866-15.866 15.866-15.866-7.103-15.866-15.866 7.103-15.866 15.866-15.866" id="Fill-15"/><path d="M1639.679 892.273c8.763 0 15.866 7.108 15.866 15.871 0 8.763-7.103 15.866-15.866 15.866s-15.866-7.103-15.866-15.866 7.103-15.871 15.866-15.871" id="Fill-16"/><path d="M1639.679 1103.273c8.763 0 15.866 7.108 15.866 15.871 0 8.763-7.103 15.866-15.866 15.866s-15.866-7.103-15.866-15.866 7.103-15.871 15.866-15.871" id="Fill-17"/></g><g fill="#98FAB8"><path d="M354.866 892.273c8.763 0 15.866 7.108 15.866 15.871 0 8.763-7.103 15.866-15.866 15.866s-15.866-7.103-15.866-15.866 7.103-15.871 15.866-15.871" id="Fill-1"/><path d="M457.319 1031.106c8.763 0 15.866 7.108 15.866 15.871 0 8.763-7.103 15.866-15.866 15.866s-15.866-7.103-15.866-15.866 7.103-15.871 15.866-15.871" id="Fill-2"/><path d="M348.866 1103.3c8.763 0 15.866 7.108 15.866 15.871 0 8.763-7.103 15.866-15.866 15.866s-15.866-7.103-15.866-15.866 7.103-15.871 15.866-15.871" id="Fill-3"/><path d="M523.959 1064.426c8.763 0 15.866 7.108 15.866 15.871 0 8.763-7.103 15.866-15.866 15.866s-15.866-7.103-15.866-15.866 7.103-15.871 15.866-15.871" id="Fill-4"/><path d="M668.346 997.786c8.763 0 15.866 7.103 15.866 15.866s-7.103 15.866-15.866 15.866-15.866-7.103-15.866-15.866 7.103-15.866 15.866-15.866" id="Fill-5"/><path d="M734.986 931.146c8.763 0 15.866 7.108 15.866 15.871 0 8.763-7.103 15.866-15.866 15.866s-15.866-7.103-15.866-15.866 7.103-15.871 15.866-15.871" id="Fill-6"/><path d="M808.866 1103.3c8.763 0 15.866 7.108 15.866 15.871 0 8.763-7.103 15.866-15.866 15.866s-15.866-7.103-15.866-15.866 7.103-15.871 15.866-15.871" id="Fill-7"/><path d="M940.459 1031.106c8.763 0 15.866 7.108 15.866 15.871 0 8.763-7.103 15.866-15.866 15.866s-15.866-7.103-15.866-15.866 7.103-15.871 15.866-15.871" id="Fill-8"/><path d="M1090.953 1103.3c8.763 0 15.866 7.108 15.866 15.871 0 8.763-7.103 15.866-15.866 15.866s-15.866-7.103-15.866-15.866 7.103-15.871 15.866-15.871" id="Fill-9"/><path d="M1150.806 1031.273c8.763 0 15.866 7.108 15.866 15.871 0 8.763-7.103 15.866-15.866 15.866s-15.866-7.103-15.866-15.866 7.103-15.871 15.866-15.871" id="Fill-10"/><path d="M1245.893 931.146c8.763 0 15.866 7.108 15.866 15.871 0 8.763-7.103 15.866-15.866 15.866s-15.866-7.103-15.866-15.866 7.103-15.871 15.866-15.871" id="Fill-11"/><path d="M1362.806 892.273c8.763 0 15.866 7.108 15.866 15.871 0 8.763-7.103 15.866-15.866 15.866s-15.866-7.103-15.866-15.866 7.103-15.871 15.866-15.871" id="Fill-12"/><path d="M1429.706 997.786c8.763 0 15.866 7.103 15.866 15.866s-7.103 15.866-15.866 15.866-15.866-7.103-15.866-15.866 7.103-15.866 15.866-15.866" id="Fill-13"/><path d="M1362.806 1064.273c8.763 0 15.866 7.108 15.866 15.871 0 8.763-7.103 15.866-15.866 15.866s-15.866-7.103-15.866-15.866 7.103-15.871 15.866-15.871" id="Fill-14"/><path d="M1567.806 964.273c8.763 0 15.866 7.103 15.866 15.866s-7.103 15.866-15.866 15.866-15.866-7.103-15.866-15.866 7.103-15.866 15.866-15.866" id="Fill-15"/><path d="M1678.806 892.273c8.763 0 15.866 7.108 15.866 15.871 0 8.763-7.103 15.866-15.866 15.866s-15.866-7.103-15.866-15.866 7.103-15.871 15.866-15.871" id="Fill-16"/><path d="M1678.806 1103.273c8.763 0 15.866 7.108 15.866 15.871 0 8.763-7.103 15.866-15.866 15.866s-15.866-7.103-15.866-15.866 7.103-15.871 15.866-15.871" id="Fill-17"/></g><g fill="#F9FF70"><path d="M335.146 931.146c8.763 0 15.866 7.108 15.866 15.871 0 8.763-7.103 15.866-15.866 15.866s-15.866-7.103-15.866-15.866 7.103-15.871 15.866-15.871"/><path d="M457.319 997.786c8.763 0 15.866 7.103 15.866 15.866s-7.103 15.866-15.866 15.866-15.866-7.103-15.866-15.866 7.103-15.866 15.866-15.866"/><path d="M593.866 892.273c8.763 0 15.866 7.108 15.866 15.871 0 8.763-7.103 15.866-15.866 15.866s-15.866-7.103-15.866-15.866 7.103-15.871 15.866-15.871"/><path d="M558.279 1103.3c8.763 0 15.866 7.108 15.866 15.871 0 8.763-7.103 15.866-15.866 15.866s-15.866-7.103-15.866-15.866 7.103-15.871 15.866-15.871"/><path d="M734.986 1031.106c8.763 0 15.866 7.108 15.866 15.871 0 8.763-7.103 15.866-15.866 15.866s-15.866-7.103-15.866-15.866 7.103-15.871 15.866-15.871"/><path d="M845.866 1103.3c8.763 0 15.866 7.108 15.866 15.871 0 8.763-7.103 15.866-15.866 15.866s-15.866-7.103-15.866-15.866 7.103-15.871 15.866-15.871"/><path d="M940.459 964.466c8.763 0 15.866 7.103 15.866 15.866s-7.103 15.866-15.866 15.866-15.866-7.103-15.866-15.866 7.103-15.866 15.866-15.866"/><path d="M1014.866 1103.3c8.763 0 15.866 7.108 15.866 15.871 0 8.763-7.103 15.866-15.866 15.866s-15.866-7.103-15.866-15.866 7.103-15.871 15.866-15.871"/><path d="M1151.146 1064.273c8.763 0 15.866 7.108 15.866 15.871 0 8.763-7.103 15.866-15.866 15.866s-15.866-7.103-15.866-15.866 7.103-15.871 15.866-15.871"/><path d="M1201.466 931.146c8.763 0 15.866 7.108 15.866 15.871 0 8.763-7.103 15.866-15.866 15.866s-15.866-7.103-15.866-15.866 7.103-15.871 15.866-15.871"/><path d="M1296.146 1031.273c8.763 0 15.866 7.108 15.866 15.871 0 8.763-7.103 15.866-15.866 15.866s-15.866-7.103-15.866-15.866 7.103-15.871 15.866-15.871"/><path d="M1362.146 964.273c8.763 0 15.866 7.103 15.866 15.866s-7.103 15.866-15.866 15.866-15.866-7.103-15.866-15.866 7.103-15.866 15.866-15.866"/><path d="M1462.473 892.273c8.763 0 15.866 7.108 15.866 15.871 0 8.763-7.103 15.866-15.866 15.866s-15.866-7.103-15.866-15.866 7.103-15.871 15.866-15.871"/><path d="M1501.346 1103.3c8.763 0 15.866 7.108 15.866 15.871 0 8.763-7.103 15.866-15.866 15.866s-15.866-7.103-15.866-15.866 7.103-15.871 15.866-15.871"/><path d="M1568.146 931.273c8.763 0 15.866 7.108 15.866 15.871 0 8.763-7.103 15.866-15.866 15.866s-15.866-7.103-15.866-15.866 7.103-15.871 15.866-15.871"/><path d="M1679.146 998.273c8.763 0 15.866 7.103 15.866 15.866s-7.103 15.866-15.866 15.866-15.866-7.103-15.866-15.866 7.103-15.866 15.866-15.866"/><path d="M1601.146 1103.273c8.763 0 15.866 7.108 15.866 15.871 0 8.763-7.103 15.866-15.866 15.866s-15.866-7.103-15.866-15.866 7.103-15.871 15.866-15.871"/></g><g fill="#fff"><path d="M318.486 892.273c8.763 0 15.866 7.108 15.866 15.871 0 8.763-7.103 15.866-15.866 15.866s-15.866-7.103-15.866-15.866 7.103-15.871 15.866-15.871M390.866 892.273c8.763 0 15.866 7.108 15.866 15.871 0 8.763-7.103 15.866-15.866 15.866s-15.866-7.103-15.866-15.866 7.103-15.871 15.866-15.871M335.146 964.467c8.763 0 15.866 7.103 15.866 15.866s-7.103 15.866-15.866 15.866-15.866-7.103-15.866-15.866 7.103-15.866 15.866-15.866M335.146 997.787c8.763 0 15.866 7.103 15.866 15.866s-7.103 15.866-15.866 15.866-15.866-7.103-15.866-15.866 7.103-15.866 15.866-15.866M335.146 1064.427c8.763 0 15.866 7.108 15.866 15.871 0 8.763-7.103 15.866-15.866 15.866s-15.866-7.103-15.866-15.866 7.103-15.871 15.866-15.871M312.932 1103.3c8.763 0 15.866 7.108 15.866 15.871 0 8.763-7.103 15.866-15.866 15.866s-15.866-7.103-15.866-15.866 7.103-15.871 15.866-15.871M423.999 1103.3c8.763 0 15.866 7.108 15.866 15.871 0 8.763-7.103 15.866-15.866 15.866s-15.866-7.103-15.866-15.866 7.103-15.871 15.866-15.871M457.319 1064.427c8.763 0 15.866 7.108 15.866 15.871 0 8.763-7.103 15.866-15.866 15.866s-15.866-7.103-15.866-15.866 7.103-15.871 15.866-15.871M457.319 964.467c8.763 0 15.866 7.103 15.866 15.866s-7.103 15.866-15.866 15.866-15.866-7.103-15.866-15.866 7.103-15.866 15.866-15.866M523.959 931.147c8.763 0 15.866 7.108 15.866 15.871 0 8.763-7.103 15.866-15.866 15.866s-15.866-7.103-15.866-15.866 7.103-15.871 15.866-15.871M523.959 964.467c8.763 0 15.866 7.103 15.866 15.866s-7.103 15.866-15.866 15.866-15.866-7.103-15.866-15.866 7.103-15.866 15.866-15.866M523.959 1031.107c8.763 0 15.866 7.108 15.866 15.871 0 8.763-7.103 15.866-15.866 15.866s-15.866-7.103-15.866-15.866 7.103-15.871 15.866-15.871M593.866 1103.3c8.763 0 15.866 7.108 15.866 15.871 0 8.763-7.103 15.866-15.866 15.866s-15.866-7.103-15.866-15.866 7.103-15.871 15.866-15.871M668.346 1064.427c8.763 0 15.866 7.108 15.866 15.871 0 8.763-7.103 15.866-15.866 15.866s-15.866-7.103-15.866-15.866 7.103-15.871 15.866-15.871M668.346 1031.107c8.763 0 15.866 7.108 15.866 15.871 0 8.763-7.103 15.866-15.866 15.866s-15.866-7.103-15.866-15.866 7.103-15.871 15.866-15.871M630.472 892.273c8.763 0 15.866 7.108 15.866 15.871 0 8.763-7.103 15.866-15.866 15.866s-15.866-7.103-15.866-15.866 7.103-15.871 15.866-15.871M558.279 892.273c8.763 0 15.866 7.108 15.866 15.871 0 8.763-7.103 15.866-15.866 15.866s-15.866-7.103-15.866-15.866 7.103-15.871 15.866-15.871M734.986 892.273c8.763 0 15.866 7.108 15.866 15.871 0 8.763-7.103 15.866-15.866 15.866s-15.866-7.103-15.866-15.866 7.103-15.871 15.866-15.871M734.986 964.467c8.763 0 15.866 7.103 15.866 15.866s-7.103 15.866-15.866 15.866-15.866-7.103-15.866-15.866 7.103-15.866 15.866-15.866M734.986 1064.427c8.763 0 15.866 7.108 15.866 15.871 0 8.763-7.103 15.866-15.866 15.866s-15.866-7.103-15.866-15.866 7.103-15.871 15.866-15.871M771.866 1103.3c8.763 0 15.866 7.108 15.866 15.871 0 8.763-7.103 15.866-15.866 15.866s-15.866-7.103-15.866-15.866 7.103-15.871 15.866-15.871M940.459 997.787c8.763 0 15.866 7.103 15.866 15.866s-7.103 15.866-15.866 15.866-15.866-7.103-15.866-15.866 7.103-15.866 15.866-15.866M940.459 1103.3c8.763 0 15.866 7.108 15.866 15.871 0 8.763-7.103 15.866-15.866 15.866s-15.866-7.103-15.866-15.866 7.103-15.871 15.866-15.871M1051.866 1103.3c8.763 0 15.866 7.108 15.866 15.871 0 8.763-7.103 15.866-15.866 15.866s-15.866-7.103-15.866-15.866 7.103-15.871 15.866-15.871M1167.146 997.787c8.763 0 15.866 7.103 15.866 15.866s-7.103 15.866-15.866 15.866-15.866-7.103-15.866-15.866 7.103-15.866 15.866-15.866M1186.806 1031.107c8.763 0 15.866 7.108 15.866 15.871 0 8.763-7.103 15.866-15.866 15.866s-15.866-7.103-15.866-15.866 7.103-15.871 15.866-15.871M1259.999 1031.107c8.763 0 15.866 7.108 15.866 15.871 0 8.763-7.103 15.866-15.866 15.866s-15.866-7.103-15.866-15.866 7.103-15.871 15.866-15.871M1218.126 892.273c8.763 0 15.866 7.108 15.866 15.871 0 8.763-7.103 15.866-15.866 15.866s-15.866-7.103-15.866-15.866 7.103-15.871 15.866-15.871M1274.659 997.787c8.763 0 15.866 7.103 15.866 15.866s-7.103 15.866-15.866 15.866-15.866-7.103-15.866-15.866 7.103-15.866 15.866-15.866M1295.932 1103.273c8.763 0 15.866 7.108 15.866 15.871 0 8.763-7.103 15.866-15.866 15.866s-15.866-7.103-15.866-15.866 7.103-15.871 15.866-15.871M1362.932 1103.273c8.763 0 15.866 7.108 15.866 15.871 0 8.763-7.103 15.866-15.866 15.866s-15.866-7.103-15.866-15.866 7.103-15.871 15.866-15.871M1362.932 931.273c8.763 0 15.866 7.108 15.866 15.871 0 8.763-7.103 15.866-15.866 15.866s-15.866-7.103-15.866-15.866 7.103-15.871 15.866-15.871M1428.866 892.273c8.763 0 15.866 7.108 15.866 15.871 0 8.763-7.103 15.866-15.866 15.866s-15.866-7.103-15.866-15.866 7.103-15.871 15.866-15.871M1395.833 997.787c8.763 0 15.866 7.103 15.866 15.866s-7.103 15.866-15.866 15.866-15.866-7.103-15.866-15.866 7.103-15.866 15.866-15.866M1462.932 998.273c8.763 0 15.866 7.103 15.866 15.866s-7.103 15.866-15.866 15.866-15.866-7.103-15.866-15.866 7.103-15.866 15.866-15.866M1501.346 964.467c8.763 0 15.866 7.103 15.866 15.866s-7.103 15.866-15.866 15.866-15.866-7.103-15.866-15.866 7.103-15.866 15.866-15.866M1706.819 931.147c8.763 0 15.866 7.108 15.866 15.871 0 8.763-7.103 15.866-15.866 15.866s-15.866-7.103-15.866-15.866 7.103-15.871 15.866-15.871M1639.932 998.273c8.763 0 15.866 7.103 15.866 15.866s-7.103 15.866-15.866 15.866-15.866-7.103-15.866-15.866 7.103-15.866 15.866-15.866M1706.932 1064.273c8.763 0 15.866 7.108 15.866 15.871 0 8.763-7.103 15.866-15.866 15.866s-15.866-7.103-15.866-15.866 7.103-15.871 15.866-15.871"/></g></g></g></svg>